<?xml version="1.0" encoding="UTF-8" standalone="no"?>
<svg
   xmlns:dc="http://purl.org/dc/elements/1.1/"
   xmlns:cc="http://creativecommons.org/ns#"
   xmlns:rdf="http://www.w3.org/1999/02/22-rdf-syntax-ns#"
   xmlns:svg="http://www.w3.org/2000/svg"
   xmlns="http://www.w3.org/2000/svg"
   xmlns:sodipodi="http://sodipodi.sourceforge.net/DTD/sodipodi-0.dtd"
   xmlns:inkscape="http://www.inkscape.org/namespaces/inkscape"
   version="1.1"
   id="svg2"
   xml:space="preserve"
   width="8.5in"
   height="11in"
   viewBox="0 0 816 1056"
   sodipodi:docname="Manual 511.svg"
   inkscape:version="1.0.2 (1.0.2+r75+1)"><metadata
     id="metadata8"><rdf:RDF><cc:Work
         rdf:about=""><dc:format>image/svg+xml</dc:format><dc:type
           rdf:resource="http://purl.org/dc/dcmitype/StillImage" /><dc:title></dc:title></cc:Work></rdf:RDF></metadata><defs
     id="defs6"><clipPath
       clipPathUnits="userSpaceOnUse"
       id="clipPath26"><path
         d="M 0,0 H 117 V -117 H 0 Z"
         clip-rule="evenodd"
         id="path24" /></clipPath><clipPath
       clipPathUnits="userSpaceOnUse"
       id="clipPath84"><path
         d="M 0,0 H 117 V -117 H 0 Z"
         clip-rule="evenodd"
         id="path82" /></clipPath><clipPath
       clipPathUnits="userSpaceOnUse"
       id="clipPath142"><path
         d="M 0,0 H 117 V -117 H 0 Z"
         clip-rule="evenodd"
         id="path140" /></clipPath><clipPath
       clipPathUnits="userSpaceOnUse"
       id="clipPath200"><path
         d="M 0,0 H 117 V -117 H 0 Z"
         clip-rule="evenodd"
         id="path198" /></clipPath><clipPath
       clipPathUnits="userSpaceOnUse"
       id="clipPath250"><path
         d="M 0,0 H 117 V -117 H 0 Z"
         clip-rule="evenodd"
         id="path248" /></clipPath><clipPath
       clipPathUnits="userSpaceOnUse"
       id="clipPath304"><path
         d="M 0,0 H 117 V -117 H 0 Z"
         clip-rule="evenodd"
         id="path302" /></clipPath><clipPath
       clipPathUnits="userSpaceOnUse"
       id="clipPath358"><path
         d="M 0,0 H 117 V -117 H 0 Z"
         clip-rule="evenodd"
         id="path356" /></clipPath><clipPath
       clipPathUnits="userSpaceOnUse"
       id="clipPath412"><path
         d="M 0,0 H 117 V -117 H 0 Z"
         clip-rule="evenodd"
         id="path410" /></clipPath><clipPath
       clipPathUnits="userSpaceOnUse"
       id="clipPath462"><path
         d="M 0,0 H 117 V -117 H 0 Z"
         clip-rule="evenodd"
         id="path460" /></clipPath><clipPath
       clipPathUnits="userSpaceOnUse"
       id="clipPath504"><path
         d="M 0,0 H 117 V -117 H 0 Z"
         clip-rule="evenodd"
         id="path502" /></clipPath><clipPath
       clipPathUnits="userSpaceOnUse"
       id="clipPath546"><path
         d="M 0,0 H 117 V -117 H 0 Z"
         clip-rule="evenodd"
         id="path544" /></clipPath><clipPath
       clipPathUnits="userSpaceOnUse"
       id="clipPath588"><path
         d="M 0,0 H 117 V -117 H 0 Z"
         clip-rule="evenodd"
         id="path586" /></clipPath><clipPath
       clipPathUnits="userSpaceOnUse"
       id="clipPath708"><path
         d="M 0,0 H 117 V -171 H 0 Z"
         clip-rule="evenodd"
         id="path706" /></clipPath><clipPath
       clipPathUnits="userSpaceOnUse"
       id="clipPath718"><path
         d="M 0,-171 H 612 V 171 H 0 Z"
         id="path716" /></clipPath><clipPath
       clipPathUnits="userSpaceOnUse"
       id="clipPath722"><path
         d="M 0,0 H 117 V -117 H 0 Z"
         clip-rule="evenodd"
         id="path720" /></clipPath><clipPath
       clipPathUnits="userSpaceOnUse"
       id="clipPath804"><path
         d="M 0,0 H 117 V -171 H 0 Z"
         clip-rule="evenodd"
         id="path802" /></clipPath><clipPath
       clipPathUnits="userSpaceOnUse"
       id="clipPath814"><path
         d="M 0,-171 H 612 V 171 H 0 Z"
         id="path812" /></clipPath><clipPath
       clipPathUnits="userSpaceOnUse"
       id="clipPath818"><path
         d="M 0,0 H 117 V -117 H 0 Z"
         clip-rule="evenodd"
         id="path816" /></clipPath></defs><sodipodi:namedview
     pagecolor="#ffffff"
     bordercolor="#666666"
     borderopacity="1"
     objecttolerance="10"
     gridtolerance="10"
     guidetolerance="10"
     inkscape:pageopacity="0"
     inkscape:pageshadow="2"
     inkscape:window-width="1864"
     inkscape:window-height="1016"
     id="namedview4"
     showgrid="false"
     inkscape:zoom="0.98432478"
     inkscape:cx="146.93476"
     inkscape:cy="16.865983"
     inkscape:window-x="56"
     inkscape:window-y="27"
     inkscape:window-maximized="1"
     inkscape:current-layer="g10"
     inkscape:document-rotation="0"
     units="in"
     inkscape:document-units="in" /><g
     id="g10"
     inkscape:groupmode="layer"
     inkscape:label="Barcodes"
     transform="matrix(1.3333333,0,0,-1.3333333,0,1056)"><rect
       style="fill:#762fa9;fill-opacity:1;stroke-width:4.98318"
       id="rect2103"
       width="153"
       height="207"
       x="-2.1980488"
       y="-727.20428"
       transform="scale(1,-1)" /><g
       id="g714"
       transform="translate(15.80195,536.40429)" /><g
       aria-label="M"
       transform="matrix(1,0,0,-1,15.80195,563.81445)"
       id="text740"
       style="font-variant:normal;font-weight:normal;font-size:12px;font-family:Arial;-inkscape-font-specification:ArialMT;writing-mode:lr-tb;fill:#181715;fill-opacity:1;fill-rule:nonzero;stroke:none"><path
         d="m 0.890625,0 v -8.5898438 h 1.7109375 l 2.0332031,6.0820313 q 0.28125,0.8496094 0.4101563,1.2714844 0.1464843,-0.46875 0.4570312,-1.3769532 L 7.5585937,-8.5898438 H 9.0878906 V 0 H 7.9921875 V -7.1894531 L 5.4960937,0 H 4.4707031 L 1.9863281,-7.3125 V 0 Z"
         id="path1075" /></g><g
       aria-label="a"
       transform="matrix(1,0,0,-1,25.70195,563.81445)"
       id="text744"
       style="font-variant:normal;font-weight:normal;font-size:12px;font-family:Arial;-inkscape-font-specification:ArialMT;writing-mode:lr-tb;fill:#181715;fill-opacity:1;fill-rule:nonzero;stroke:none"><path
         d="M 4.8515625,-0.76757812 Q 4.265625,-0.26953125 3.7207031,-0.06445312 3.1816406,0.140625 2.5605469,0.140625 q -1.0253907,0 -1.5761719,-0.49804688 -0.55078125,-0.50390625 -0.55078125,-1.28320312 0,-0.4570313 0.20507812,-0.8320313 0.21093751,-0.3808593 0.54492183,-0.609375 0.3398438,-0.2285156 0.7617188,-0.3457031 0.3105469,-0.082031 0.9375,-0.1582031 1.2773437,-0.1523438 1.8808594,-0.3632813 0.00586,-0.2167968 0.00586,-0.2753906 0,-0.6445312 -0.2988281,-0.9082031 -0.4042969,-0.3574219 -1.2011718,-0.3574219 -0.7441407,0 -1.1015625,0.2636719 -0.3515626,0.2578125 -0.5214844,0.9199219 l -1.03125003,-0.140625 q 0.140625,-0.6621094 0.46289063,-1.0664063 0.3222656,-0.4101562 0.9316406,-0.6269531 0.609375,-0.2226562 1.4121094,-0.2226562 0.796875,0 1.2949219,0.1875 0.4980468,0.1875 0.7324218,0.4746093 0.234375,0.28125 0.328125,0.7148438 0.052734,0.2695312 0.052734,0.9726562 v 1.40625 q 0,1.4707032 0.064453,1.86328128 Q 5.9648437,-0.35742188 6.1640625,0 H 5.0625 Q 4.8984375,-0.328125 4.8515625,-0.76757812 Z M 4.7636719,-3.1230469 q -0.5742188,0.234375 -1.7226563,0.3984375 -0.6503906,0.09375 -0.9199218,0.2109375 -0.2695313,0.1171875 -0.4160157,0.3457031 -0.1464844,0.2226563 -0.1464844,0.4980469 0,0.421875 0.3164063,0.70312502 0.3222656,0.28125001 0.9375,0.28125001 0.609375,0 1.0839844,-0.26367188 Q 4.3710937,-1.21875 4.59375,-1.6816406 4.7636719,-2.0390625 4.7636719,-2.7363281 Z"
         id="path1078" /></g><g
       aria-label="n"
       transform="matrix(1,0,0,-1,32.30195,563.81445)"
       id="text748"
       style="font-variant:normal;font-weight:normal;font-size:12px;font-family:Arial;-inkscape-font-specification:ArialMT;writing-mode:lr-tb;fill:#181715;fill-opacity:1;fill-rule:nonzero;stroke:none"><path
         d="M 0.79101562,0 V -6.2226562 H 1.7402344 v 0.8847656 q 0.6855469,-1.0253906 1.9804687,-1.0253906 0.5625,0 1.03125,0.2050781 0.4746094,0.1992187 0.7089844,0.5273437 0.234375,0.328125 0.328125,0.7792969 0.058594,0.2929688 0.058594,1.0253906 V 0 H 4.7929687 v -3.7851563 q 0,-0.6445312 -0.1230468,-0.9609374 Q 4.546875,-5.0683594 4.2304687,-5.2558594 3.9199219,-5.4492187 3.4980469,-5.4492187 q -0.6738281,0 -1.1660156,0.4277343 Q 1.8457031,-4.59375 1.8457031,-3.3984375 V 0 Z"
         id="path1081" /></g><g
       aria-label="u"
       transform="matrix(1,0,0,-1,38.90195,563.81445)"
       id="text752"
       style="font-variant:normal;font-weight:normal;font-size:12px;font-family:Arial;-inkscape-font-specification:ArialMT;writing-mode:lr-tb;fill:#181715;fill-opacity:1;fill-rule:nonzero;stroke:none"><path
         d="M 4.8691406,0 V -0.9140625 Q 4.1425781,0.140625 2.8945313,0.140625 2.34375,0.140625 1.8632812,-0.0703125 1.3886719,-0.28125 1.1542969,-0.59765625 0.92578125,-0.91992188 0.83203125,-1.3828125 0.76757812,-1.6933594 0.76757812,-2.3671875 V -6.2226562 H 1.8222656 v 3.4511718 q 0,0.8261719 0.064453,1.1132813 0.099609,0.4160156 0.4218751,0.65625 0.3222656,0.23437498 0.796875,0.23437498 0.4746093,0 0.890625,-0.24023438 0.4160156,-0.2460937 0.5859374,-0.6621094 0.1757813,-0.421875 0.1757813,-1.21875 V -6.2226562 H 5.8125 V 0 Z"
         id="path1084" /></g><g
       aria-label="a"
       transform="matrix(1,0,0,-1,45.50195,563.81445)"
       id="text756"
       style="font-variant:normal;font-weight:normal;font-size:12px;font-family:Arial;-inkscape-font-specification:ArialMT;writing-mode:lr-tb;fill:#181715;fill-opacity:1;fill-rule:nonzero;stroke:none"><path
         d="M 4.8515625,-0.76757812 Q 4.265625,-0.26953125 3.7207031,-0.06445312 3.1816406,0.140625 2.5605469,0.140625 q -1.0253907,0 -1.5761719,-0.49804688 -0.55078125,-0.50390625 -0.55078125,-1.28320312 0,-0.4570313 0.20507812,-0.8320313 0.21093751,-0.3808593 0.54492183,-0.609375 0.3398438,-0.2285156 0.7617188,-0.3457031 0.3105469,-0.082031 0.9375,-0.1582031 1.2773437,-0.1523438 1.8808594,-0.3632813 0.00586,-0.2167968 0.00586,-0.2753906 0,-0.6445312 -0.2988281,-0.9082031 -0.4042969,-0.3574219 -1.2011718,-0.3574219 -0.7441407,0 -1.1015625,0.2636719 -0.3515626,0.2578125 -0.5214844,0.9199219 l -1.03125003,-0.140625 q 0.140625,-0.6621094 0.46289063,-1.0664063 0.3222656,-0.4101562 0.9316406,-0.6269531 0.609375,-0.2226562 1.4121094,-0.2226562 0.796875,0 1.2949219,0.1875 0.4980468,0.1875 0.7324218,0.4746093 0.234375,0.28125 0.328125,0.7148438 0.052734,0.2695312 0.052734,0.9726562 v 1.40625 q 0,1.4707032 0.064453,1.86328128 Q 5.9648437,-0.35742188 6.1640625,0 H 5.0625 Q 4.8984375,-0.328125 4.8515625,-0.76757812 Z M 4.7636719,-3.1230469 q -0.5742188,0.234375 -1.7226563,0.3984375 -0.6503906,0.09375 -0.9199218,0.2109375 -0.2695313,0.1171875 -0.4160157,0.3457031 -0.1464844,0.2226563 -0.1464844,0.4980469 0,0.421875 0.3164063,0.70312502 0.3222656,0.28125001 0.9375,0.28125001 0.609375,0 1.0839844,-0.26367188 Q 4.3710937,-1.21875 4.59375,-1.6816406 4.7636719,-2.0390625 4.7636719,-2.7363281 Z"
         id="path1087" /></g><g
       aria-label="l"
       transform="matrix(1,0,0,-1,52.10195,563.81445)"
       id="text760"
       style="font-variant:normal;font-weight:normal;font-size:12px;font-family:Arial;-inkscape-font-specification:ArialMT;writing-mode:lr-tb;fill:#181715;fill-opacity:1;fill-rule:nonzero;stroke:none"><path
         d="M 0.76757812,0 V -8.5898438 H 1.8222656 V 0 Z"
         id="path1090" /></g><g
       aria-label="5"
       transform="matrix(1,0,0,-1,15.80195,548.81445)"
       id="text764"
       style="font-variant:normal;font-weight:normal;font-size:12px;font-family:Arial;-inkscape-font-specification:ArialMT;writing-mode:lr-tb;fill:#181715;fill-opacity:1;fill-rule:nonzero;stroke:none"><path
         d="M 0.49804688,-2.25 1.6054687,-2.34375 q 0.1230469,0.8085938 0.5683594,1.21875 0.4511719,0.40429688 1.0839844,0.40429688 0.7617187,0 1.2890625,-0.57421878 0.5273437,-0.5742187 0.5273437,-1.5234375 0,-0.9023437 -0.5097656,-1.4238281 -0.5039062,-0.5214844 -1.3242187,-0.5214844 -0.5097656,0 -0.9199219,0.234375 -0.4101563,0.2285157 -0.6445313,0.5976563 L 0.68554687,-4.0605469 1.5175781,-8.4726563 h 4.2714844 v 1.0078126 H 2.3613281 L 1.8984375,-5.15625 q 0.7734375,-0.5390625 1.6230469,-0.5390625 1.125,0 1.8984375,0.7792969 0.7734375,0.7792969 0.7734375,2.0039062 0,1.1660157 -0.6796875,2.01562502 Q 4.6875,0.14648437 3.2578125,0.14648437 q -1.171875,0 -1.9160156,-0.65624999 Q 0.60351562,-1.1660156 0.49804688,-2.25 Z"
         id="path1093" /></g><g
       aria-label="1"
       transform="matrix(1,0,0,-1,22.40195,548.81445)"
       id="text768"
       style="font-variant:normal;font-weight:normal;font-size:12px;font-family:Arial;-inkscape-font-specification:ArialMT;writing-mode:lr-tb;fill:#181715;fill-opacity:1;fill-rule:nonzero;stroke:none"><path
         d="M 4.4707031,0 H 3.4160156 V -6.7207031 Q 3.0351563,-6.3574219 2.4140625,-5.9941406 1.7988281,-5.6308594 1.3066406,-5.4492187 V -6.46875 Q 2.1914063,-6.8847656 2.8535156,-7.4765625 3.515625,-8.0683594 3.7910156,-8.625 h 0.6796875 z"
         id="path1096" /></g><g
       aria-label="1"
       transform="matrix(1,0,0,-1,28.10195,548.81445)"
       id="text772"
       style="font-variant:normal;font-weight:normal;font-size:12px;font-family:Arial;-inkscape-font-specification:ArialMT;writing-mode:lr-tb;fill:#181715;fill-opacity:1;fill-rule:nonzero;stroke:none"><path
         d="M 4.4707031,0 H 3.4160156 V -6.7207031 Q 3.0351563,-6.3574219 2.4140625,-5.9941406 1.7988281,-5.6308594 1.3066406,-5.4492187 V -6.46875 Q 2.1914063,-6.8847656 2.8535156,-7.4765625 3.515625,-8.0683594 3.7910156,-8.625 h 0.6796875 z"
         id="path1099" /></g><path
       d="m 84.6959,566.10389 c -1.2614,0.0241 -2.29393,-1.03236 -2.29393,-2.29405 v -4.90556 h -0.45 v 9.91181 c 0,1.26169 -1.03252,2.31818 -2.29393,2.29405 -1.22236,-0.0234 -2.20606,-1.02162 -2.20606,-2.24961 v -9.95625 h -0.45 v 12.10556 c 0,1.26169 -1.03253,2.31818 -2.29393,2.29404 -1.22237,-0.0234 -2.20607,-1.02161 -2.20607,-2.2496 v -12.15 h -0.45 v 9.85556 c 0,1.26169 -1.03253,2.31818 -2.29393,2.29405 -1.22237,-0.0234 -2.20607,-1.02162 -2.20607,-2.24961 v -13.27454 l -1.7802,2.44794 c -0.73086,1.00496 -2.13801,1.2272 -3.14308,0.49629 -1.00491,-0.73091 -1.22709,-2.13806 -0.49624,-3.14308 l 7.06506,-9.71465 c 0.50807,-0.69861 1.31974,-1.11194 2.18356,-1.11195 h 11.11444 c 1.25291,0 2.34123,0.86197 2.62822,2.08159 l 1.49108,6.33712 c 0.19075,0.8107 0.28709,1.64075 0.2871,2.47359 v 8.45769 c 5e-5,1.228 -0.98365,2.22621 -2.20602,2.24961 z"
       style="fill:#181715;fill-opacity:1;fill-rule:nonzero;stroke:none"
       id="path782" /><path
       style="fill:#00000e;fill-opacity:1;stroke-width:0.123941"
       d="m 15.80195,650.57261 v 58.50003 H 74.301947 132.80195 V 650.57261 592.07262 H 74.301947 15.80195 Z m 87.75,-14.62501 v 14.62501 H 96.239451 88.926949 V 635.9476 621.32265 h 7.312502 7.312499 z"
       id="path1340" /></g></svg>
